<mxfile host="app.diagrams.net" agent="Mozilla/5.0 (Windows NT 10.0; Win64; x64) AppleWebKit/537.36 (KHTML, like Gecko) Chrome/132.0.0.0 Safari/537.36" version="26.0.13">
  <diagram name="Page-1" id="nuY7h-oL-glD3epu7s-H">
    <mxGraphModel dx="1500" dy="746" grid="1" gridSize="10" guides="1" tooltips="1" connect="1" arrows="1" fold="1" page="1" pageScale="1" pageWidth="850" pageHeight="1100" math="0" shadow="0">
      <root>
        <mxCell id="0" />
        <mxCell id="1" parent="0" />
        <mxCell id="gz6oaAtXVfqfc5E-_KEY-1" value="" style="rounded=0;whiteSpace=wrap;html=1;" parent="1" vertex="1">
          <mxGeometry x="160" y="80" width="910" height="1340" as="geometry" />
        </mxCell>
        <mxCell id="gz6oaAtXVfqfc5E-_KEY-2" value="QuickTable" style="text;html=1;align=center;verticalAlign=middle;whiteSpace=wrap;rounded=0;" parent="1" vertex="1">
          <mxGeometry x="410" y="50" width="60" height="30" as="geometry" />
        </mxCell>
        <mxCell id="gz6oaAtXVfqfc5E-_KEY-3" value="Visiteur&lt;div&gt;&lt;br&gt;&lt;/div&gt;" style="shape=umlActor;verticalLabelPosition=bottom;verticalAlign=top;html=1;outlineConnect=0;" parent="1" vertex="1">
          <mxGeometry x="40" y="240" width="30" height="60" as="geometry" />
        </mxCell>
        <mxCell id="gz6oaAtXVfqfc5E-_KEY-4" value="Client&lt;div&gt;&lt;br&gt;&lt;/div&gt;" style="shape=umlActor;verticalLabelPosition=bottom;verticalAlign=top;html=1;outlineConnect=0;" parent="1" vertex="1">
          <mxGeometry x="41" y="400" width="30" height="60" as="geometry" />
        </mxCell>
        <mxCell id="gz6oaAtXVfqfc5E-_KEY-5" value="Manager" style="shape=umlActor;verticalLabelPosition=bottom;verticalAlign=top;html=1;outlineConnect=0;" parent="1" vertex="1">
          <mxGeometry x="40" y="801" width="31" height="60" as="geometry" />
        </mxCell>
        <mxCell id="gz6oaAtXVfqfc5E-_KEY-7" value="Creer&amp;nbsp;&lt;div&gt;un Compte&lt;/div&gt;" style="ellipse;whiteSpace=wrap;html=1;" parent="1" vertex="1">
          <mxGeometry x="215" y="100" width="110" height="40" as="geometry" />
        </mxCell>
        <mxCell id="gz6oaAtXVfqfc5E-_KEY-8" value="&amp;nbsp;Rechercher&lt;div&gt;restaurants&lt;/div&gt;" style="ellipse;whiteSpace=wrap;html=1;" parent="1" vertex="1">
          <mxGeometry x="215" y="160" width="115" height="40" as="geometry" />
        </mxCell>
        <mxCell id="gz6oaAtXVfqfc5E-_KEY-9" value="Filter&amp;nbsp;&lt;div&gt;par prix&lt;/div&gt;" style="ellipse;whiteSpace=wrap;html=1;" parent="1" vertex="1">
          <mxGeometry x="420" y="180" width="120" height="44" as="geometry" />
        </mxCell>
        <mxCell id="gz6oaAtXVfqfc5E-_KEY-10" value="Filter&amp;nbsp;&lt;div&gt;par localisation&lt;/div&gt;" style="ellipse;whiteSpace=wrap;html=1;" parent="1" vertex="1">
          <mxGeometry x="416" y="130" width="120" height="44" as="geometry" />
        </mxCell>
        <mxCell id="gz6oaAtXVfqfc5E-_KEY-11" style="edgeStyle=orthogonalEdgeStyle;rounded=0;orthogonalLoop=1;jettySize=auto;html=1;exitX=0.5;exitY=1;exitDx=0;exitDy=0;" parent="1" source="gz6oaAtXVfqfc5E-_KEY-9" target="gz6oaAtXVfqfc5E-_KEY-9" edge="1">
          <mxGeometry relative="1" as="geometry" />
        </mxCell>
        <mxCell id="gz6oaAtXVfqfc5E-_KEY-12" value="" style="endArrow=classic;html=1;rounded=0;entryX=1;entryY=0.5;entryDx=0;entryDy=0;exitX=0;exitY=0.5;exitDx=0;exitDy=0;dashed=1;" parent="1" source="gz6oaAtXVfqfc5E-_KEY-10" target="gz6oaAtXVfqfc5E-_KEY-8" edge="1">
          <mxGeometry width="50" height="50" relative="1" as="geometry">
            <mxPoint x="290" y="330" as="sourcePoint" />
            <mxPoint x="340" y="280" as="targetPoint" />
          </mxGeometry>
        </mxCell>
        <mxCell id="gz6oaAtXVfqfc5E-_KEY-13" value="&amp;lt;&amp;lt;extend&amp;gt;&amp;gt;" style="text;html=1;align=center;verticalAlign=middle;whiteSpace=wrap;rounded=0;" parent="1" vertex="1">
          <mxGeometry x="330" y="140" width="60" height="30" as="geometry" />
        </mxCell>
        <mxCell id="gz6oaAtXVfqfc5E-_KEY-14" value="&amp;lt;&amp;lt;extend&amp;gt;&amp;gt;" style="text;html=1;align=center;verticalAlign=middle;whiteSpace=wrap;rounded=0;" parent="1" vertex="1">
          <mxGeometry x="380" y="170" width="60" height="30" as="geometry" />
        </mxCell>
        <mxCell id="gz6oaAtXVfqfc5E-_KEY-15" value="" style="endArrow=classic;html=1;rounded=0;entryX=1;entryY=0.5;entryDx=0;entryDy=0;exitX=0;exitY=0.5;exitDx=0;exitDy=0;dashed=1;" parent="1" source="gz6oaAtXVfqfc5E-_KEY-9" target="gz6oaAtXVfqfc5E-_KEY-8" edge="1">
          <mxGeometry width="50" height="50" relative="1" as="geometry">
            <mxPoint x="426" y="162" as="sourcePoint" />
            <mxPoint x="340" y="190" as="targetPoint" />
          </mxGeometry>
        </mxCell>
        <mxCell id="gz6oaAtXVfqfc5E-_KEY-19" value="" style="endArrow=classic;html=1;rounded=0;entryX=0.005;entryY=0.71;entryDx=0;entryDy=0;entryPerimeter=0;" parent="1" source="gz6oaAtXVfqfc5E-_KEY-3" target="gz6oaAtXVfqfc5E-_KEY-8" edge="1">
          <mxGeometry width="50" height="50" relative="1" as="geometry">
            <mxPoint x="290" y="330" as="sourcePoint" />
            <mxPoint x="340" y="280" as="targetPoint" />
          </mxGeometry>
        </mxCell>
        <mxCell id="gz6oaAtXVfqfc5E-_KEY-20" value="" style="endArrow=classic;html=1;rounded=0;entryX=0;entryY=0.5;entryDx=0;entryDy=0;" parent="1" source="gz6oaAtXVfqfc5E-_KEY-3" target="gz6oaAtXVfqfc5E-_KEY-7" edge="1">
          <mxGeometry width="50" height="50" relative="1" as="geometry">
            <mxPoint x="290" y="330" as="sourcePoint" />
            <mxPoint x="340" y="280" as="targetPoint" />
          </mxGeometry>
        </mxCell>
        <mxCell id="gz6oaAtXVfqfc5E-_KEY-22" value="Voir&amp;nbsp;&lt;div&gt;informations&lt;br&gt;du restaurants&lt;/div&gt;" style="ellipse;whiteSpace=wrap;html=1;" parent="1" vertex="1">
          <mxGeometry x="215" y="230" width="115" height="50" as="geometry" />
        </mxCell>
        <mxCell id="gz6oaAtXVfqfc5E-_KEY-32" value="" style="endArrow=classic;html=1;rounded=0;entryX=0;entryY=0.5;entryDx=0;entryDy=0;" parent="1" target="gz6oaAtXVfqfc5E-_KEY-22" edge="1">
          <mxGeometry width="50" height="50" relative="1" as="geometry">
            <mxPoint x="80" y="272" as="sourcePoint" />
            <mxPoint x="226" y="198" as="targetPoint" />
          </mxGeometry>
        </mxCell>
        <mxCell id="gz6oaAtXVfqfc5E-_KEY-34" value="" style="endArrow=classic;html=1;rounded=0;entryX=0.047;entryY=0.81;entryDx=0;entryDy=0;entryPerimeter=0;" parent="1" target="gz6oaAtXVfqfc5E-_KEY-8" edge="1">
          <mxGeometry width="50" height="50" relative="1" as="geometry">
            <mxPoint x="80" y="420" as="sourcePoint" />
            <mxPoint x="225" y="265" as="targetPoint" />
          </mxGeometry>
        </mxCell>
        <mxCell id="gz6oaAtXVfqfc5E-_KEY-35" value="" style="endArrow=classic;html=1;rounded=0;entryX=0.332;entryY=0.896;entryDx=0;entryDy=0;entryPerimeter=0;" parent="1" edge="1">
          <mxGeometry width="50" height="50" relative="1" as="geometry">
            <mxPoint x="79" y="434" as="sourcePoint" />
            <mxPoint x="242.18000000000006" y="278.79999999999995" as="targetPoint" />
          </mxGeometry>
        </mxCell>
        <mxCell id="gz6oaAtXVfqfc5E-_KEY-37" value="Authenticated" style="ellipse;whiteSpace=wrap;html=1;" parent="1" vertex="1">
          <mxGeometry x="780" y="460" width="220" height="50" as="geometry" />
        </mxCell>
        <mxCell id="gz6oaAtXVfqfc5E-_KEY-38" value="Reserver&amp;nbsp;&lt;div&gt;une Table&lt;/div&gt;" style="ellipse;whiteSpace=wrap;html=1;" parent="1" vertex="1">
          <mxGeometry x="215" y="310" width="115" height="50" as="geometry" />
        </mxCell>
        <mxCell id="gz6oaAtXVfqfc5E-_KEY-39" value="" style="endArrow=classic;html=1;rounded=0;entryX=0;entryY=1;entryDx=0;entryDy=0;" parent="1" target="gz6oaAtXVfqfc5E-_KEY-38" edge="1">
          <mxGeometry width="50" height="50" relative="1" as="geometry">
            <mxPoint x="89" y="444" as="sourcePoint" />
            <mxPoint x="252.18000000000006" y="288.79999999999995" as="targetPoint" />
          </mxGeometry>
        </mxCell>
        <mxCell id="gz6oaAtXVfqfc5E-_KEY-40" value="" style="endArrow=classic;html=1;rounded=0;entryX=0;entryY=0.5;entryDx=0;entryDy=0;exitX=1;exitY=0.5;exitDx=0;exitDy=0;dashed=1;" parent="1" source="gz6oaAtXVfqfc5E-_KEY-38" target="gz6oaAtXVfqfc5E-_KEY-37" edge="1">
          <mxGeometry width="50" height="50" relative="1" as="geometry">
            <mxPoint x="416" y="332" as="sourcePoint" />
            <mxPoint x="326" y="310" as="targetPoint" />
          </mxGeometry>
        </mxCell>
        <mxCell id="gz6oaAtXVfqfc5E-_KEY-41" value="&amp;lt;&amp;lt;includ&amp;gt;&amp;gt;" style="text;html=1;align=center;verticalAlign=middle;whiteSpace=wrap;rounded=0;" parent="1" vertex="1">
          <mxGeometry x="500" y="380" width="60" height="30" as="geometry" />
        </mxCell>
        <mxCell id="gz6oaAtXVfqfc5E-_KEY-42" value="Changer&lt;div&gt;formule de table&lt;/div&gt;" style="ellipse;whiteSpace=wrap;html=1;" parent="1" vertex="1">
          <mxGeometry x="390" y="245" width="115" height="50" as="geometry" />
        </mxCell>
        <mxCell id="gz6oaAtXVfqfc5E-_KEY-43" value="" style="endArrow=classic;html=1;rounded=0;entryX=1;entryY=0;entryDx=0;entryDy=0;exitX=0;exitY=0.5;exitDx=0;exitDy=0;dashed=1;" parent="1" source="gz6oaAtXVfqfc5E-_KEY-42" target="gz6oaAtXVfqfc5E-_KEY-38" edge="1">
          <mxGeometry width="50" height="50" relative="1" as="geometry">
            <mxPoint x="430" y="212" as="sourcePoint" />
            <mxPoint x="340" y="190" as="targetPoint" />
          </mxGeometry>
        </mxCell>
        <mxCell id="gz6oaAtXVfqfc5E-_KEY-44" value="&amp;lt;&amp;lt;extend&amp;gt;&amp;gt;" style="text;html=1;align=center;verticalAlign=middle;whiteSpace=wrap;rounded=0;" parent="1" vertex="1">
          <mxGeometry x="330" y="280" width="60" height="30" as="geometry" />
        </mxCell>
        <mxCell id="gz6oaAtXVfqfc5E-_KEY-45" value="Ajouter&amp;nbsp;&lt;div&gt;un Commentaire&lt;/div&gt;" style="ellipse;whiteSpace=wrap;html=1;" parent="1" vertex="1">
          <mxGeometry x="210" y="460" width="115" height="50" as="geometry" />
        </mxCell>
        <mxCell id="gz6oaAtXVfqfc5E-_KEY-46" value="" style="endArrow=classic;html=1;rounded=0;entryX=0;entryY=0.5;entryDx=0;entryDy=0;" parent="1" target="gz6oaAtXVfqfc5E-_KEY-45" edge="1">
          <mxGeometry width="50" height="50" relative="1" as="geometry">
            <mxPoint x="90" y="450" as="sourcePoint" />
            <mxPoint x="242" y="363" as="targetPoint" />
          </mxGeometry>
        </mxCell>
        <mxCell id="gz6oaAtXVfqfc5E-_KEY-47" value="Ajouter&amp;nbsp;&lt;div&gt;un Avis&lt;/div&gt;" style="ellipse;whiteSpace=wrap;html=1;" parent="1" vertex="1">
          <mxGeometry x="265" y="380" width="115" height="50" as="geometry" />
        </mxCell>
        <mxCell id="gz6oaAtXVfqfc5E-_KEY-49" value="" style="endArrow=classic;html=1;rounded=0;exitX=1;exitY=0.5;exitDx=0;exitDy=0;dashed=1;" parent="1" source="gz6oaAtXVfqfc5E-_KEY-45" target="gz6oaAtXVfqfc5E-_KEY-37" edge="1">
          <mxGeometry width="50" height="50" relative="1" as="geometry">
            <mxPoint x="340" y="345" as="sourcePoint" />
            <mxPoint x="550" y="395" as="targetPoint" />
          </mxGeometry>
        </mxCell>
        <mxCell id="gz6oaAtXVfqfc5E-_KEY-50" value="&amp;lt;&amp;lt;includ&amp;gt;&amp;gt;" style="text;html=1;align=center;verticalAlign=middle;whiteSpace=wrap;rounded=0;" parent="1" vertex="1">
          <mxGeometry x="400" y="480" width="60" height="30" as="geometry" />
        </mxCell>
        <mxCell id="gz6oaAtXVfqfc5E-_KEY-51" value="&amp;lt;&amp;lt;includ&amp;gt;&amp;gt;" style="text;html=1;align=center;verticalAlign=middle;whiteSpace=wrap;rounded=0;" parent="1" vertex="1">
          <mxGeometry x="340" y="440" width="60" height="30" as="geometry" />
        </mxCell>
        <mxCell id="gz6oaAtXVfqfc5E-_KEY-52" value="" style="endArrow=classic;html=1;rounded=0;exitX=0.93;exitY=0.28;exitDx=0;exitDy=0;dashed=1;exitPerimeter=0;entryX=0.5;entryY=1;entryDx=0;entryDy=0;" parent="1" target="gz6oaAtXVfqfc5E-_KEY-47" edge="1">
          <mxGeometry width="50" height="50" relative="1" as="geometry">
            <mxPoint x="327" y="484" as="sourcePoint" />
            <mxPoint x="572" y="452" as="targetPoint" />
          </mxGeometry>
        </mxCell>
        <mxCell id="gz6oaAtXVfqfc5E-_KEY-53" value="Confirmer&lt;br&gt;reservation" style="ellipse;whiteSpace=wrap;html=1;" parent="1" vertex="1">
          <mxGeometry x="520" y="320" width="115" height="50" as="geometry" />
        </mxCell>
        <mxCell id="gz6oaAtXVfqfc5E-_KEY-54" value="" style="endArrow=classic;html=1;rounded=0;entryX=0;entryY=0.5;entryDx=0;entryDy=0;exitX=0.972;exitY=0.352;exitDx=0;exitDy=0;dashed=1;exitPerimeter=0;" parent="1" source="gz6oaAtXVfqfc5E-_KEY-38" target="gz6oaAtXVfqfc5E-_KEY-53" edge="1">
          <mxGeometry width="50" height="50" relative="1" as="geometry">
            <mxPoint x="340" y="345" as="sourcePoint" />
            <mxPoint x="570" y="445" as="targetPoint" />
          </mxGeometry>
        </mxCell>
        <mxCell id="gz6oaAtXVfqfc5E-_KEY-55" value="&amp;lt;&amp;lt;includ&amp;gt;&amp;gt;" style="text;html=1;align=center;verticalAlign=middle;whiteSpace=wrap;rounded=0;" parent="1" vertex="1">
          <mxGeometry x="400" y="330" width="60" height="30" as="geometry" />
        </mxCell>
        <mxCell id="gz6oaAtXVfqfc5E-_KEY-59" value="Annuler&lt;br&gt;reservation" style="ellipse;whiteSpace=wrap;html=1;" parent="1" vertex="1">
          <mxGeometry x="215" y="540" width="115" height="50" as="geometry" />
        </mxCell>
        <mxCell id="gz6oaAtXVfqfc5E-_KEY-60" value="" style="endArrow=classic;html=1;rounded=0;exitX=1;exitY=0.5;exitDx=0;exitDy=0;dashed=1;entryX=0.047;entryY=0.8;entryDx=0;entryDy=0;entryPerimeter=0;" parent="1" source="gz6oaAtXVfqfc5E-_KEY-59" edge="1" target="gz6oaAtXVfqfc5E-_KEY-37">
          <mxGeometry width="50" height="50" relative="1" as="geometry">
            <mxPoint x="335" y="495" as="sourcePoint" />
            <mxPoint x="574" y="454" as="targetPoint" />
          </mxGeometry>
        </mxCell>
        <mxCell id="gz6oaAtXVfqfc5E-_KEY-61" value="" style="endArrow=classic;html=1;rounded=0;entryX=0;entryY=0.5;entryDx=0;entryDy=0;" parent="1" target="gz6oaAtXVfqfc5E-_KEY-59" edge="1">
          <mxGeometry width="50" height="50" relative="1" as="geometry">
            <mxPoint x="100" y="460" as="sourcePoint" />
            <mxPoint x="220" y="495" as="targetPoint" />
          </mxGeometry>
        </mxCell>
        <mxCell id="gz6oaAtXVfqfc5E-_KEY-62" value="Modifier&lt;br&gt;reservation" style="ellipse;whiteSpace=wrap;html=1;" parent="1" vertex="1">
          <mxGeometry x="305" y="650" width="115" height="50" as="geometry" />
        </mxCell>
        <mxCell id="gz6oaAtXVfqfc5E-_KEY-63" value="" style="endArrow=classic;html=1;rounded=0;entryX=0;entryY=0.5;entryDx=0;entryDy=0;" parent="1" target="gz6oaAtXVfqfc5E-_KEY-62" edge="1">
          <mxGeometry width="50" height="50" relative="1" as="geometry">
            <mxPoint x="80" y="460" as="sourcePoint" />
            <mxPoint x="225" y="575" as="targetPoint" />
            <Array as="points" />
          </mxGeometry>
        </mxCell>
        <mxCell id="gz6oaAtXVfqfc5E-_KEY-64" value="" style="endArrow=classic;html=1;rounded=0;exitX=1;exitY=0.5;exitDx=0;exitDy=0;dashed=1;" parent="1" source="gz6oaAtXVfqfc5E-_KEY-62" edge="1">
          <mxGeometry width="50" height="50" relative="1" as="geometry">
            <mxPoint x="340" y="575" as="sourcePoint" />
            <mxPoint x="790" y="500" as="targetPoint" />
          </mxGeometry>
        </mxCell>
        <mxCell id="gz6oaAtXVfqfc5E-_KEY-65" value="&amp;lt;&amp;lt;includ&amp;gt;&amp;gt;" style="text;html=1;align=center;verticalAlign=middle;whiteSpace=wrap;rounded=0;" parent="1" vertex="1">
          <mxGeometry x="510" y="500" width="60" height="30" as="geometry" />
        </mxCell>
        <mxCell id="gz6oaAtXVfqfc5E-_KEY-66" value="Confirmer&lt;br&gt;modification" style="ellipse;whiteSpace=wrap;html=1;" parent="1" vertex="1">
          <mxGeometry x="356" y="550" width="115" height="50" as="geometry" />
        </mxCell>
        <mxCell id="gz6oaAtXVfqfc5E-_KEY-67" value="" style="endArrow=classic;html=1;rounded=0;exitX=0.5;exitY=0;exitDx=0;exitDy=0;dashed=1;entryX=0;entryY=1;entryDx=0;entryDy=0;" parent="1" source="gz6oaAtXVfqfc5E-_KEY-62" target="gz6oaAtXVfqfc5E-_KEY-66" edge="1">
          <mxGeometry width="50" height="50" relative="1" as="geometry">
            <mxPoint x="430" y="685" as="sourcePoint" />
            <mxPoint x="594" y="474" as="targetPoint" />
          </mxGeometry>
        </mxCell>
        <mxCell id="gz6oaAtXVfqfc5E-_KEY-68" value="&amp;lt;&amp;lt;includ&amp;gt;&amp;gt;" style="text;html=1;align=center;verticalAlign=middle;whiteSpace=wrap;rounded=0;" parent="1" vertex="1">
          <mxGeometry x="305" y="600" width="60" height="30" as="geometry" />
        </mxCell>
        <mxCell id="gz6oaAtXVfqfc5E-_KEY-71" value="Creer&amp;nbsp;&lt;div&gt;des Tables&lt;/div&gt;" style="ellipse;whiteSpace=wrap;html=1;" parent="1" vertex="1">
          <mxGeometry x="210" y="760" width="115" height="50" as="geometry" />
        </mxCell>
        <mxCell id="gz6oaAtXVfqfc5E-_KEY-72" value="Accepter&lt;br&gt;reservation" style="ellipse;whiteSpace=wrap;html=1;" parent="1" vertex="1">
          <mxGeometry x="210" y="960" width="115" height="50" as="geometry" />
        </mxCell>
        <mxCell id="gz6oaAtXVfqfc5E-_KEY-73" value="Rejeter&lt;br&gt;reservation" style="ellipse;whiteSpace=wrap;html=1;" parent="1" vertex="1">
          <mxGeometry x="215" y="1020" width="115" height="50" as="geometry" />
        </mxCell>
        <mxCell id="gz6oaAtXVfqfc5E-_KEY-74" value="Voir&amp;nbsp;&lt;div&gt;statistiques&lt;/div&gt;" style="ellipse;whiteSpace=wrap;html=1;" parent="1" vertex="1">
          <mxGeometry x="219" y="1090" width="115" height="50" as="geometry" />
        </mxCell>
        <mxCell id="gz6oaAtXVfqfc5E-_KEY-75" value="" style="endArrow=classic;html=1;rounded=0;dashed=1;" parent="1" source="gz6oaAtXVfqfc5E-_KEY-71" edge="1">
          <mxGeometry width="50" height="50" relative="1" as="geometry">
            <mxPoint x="390" y="775" as="sourcePoint" />
            <mxPoint x="790" y="500" as="targetPoint" />
            <Array as="points">
              <mxPoint x="600" y="760" />
            </Array>
          </mxGeometry>
        </mxCell>
        <mxCell id="gz6oaAtXVfqfc5E-_KEY-76" value="" style="endArrow=classic;html=1;rounded=0;dashed=1;exitX=1;exitY=0.5;exitDx=0;exitDy=0;" parent="1" source="gz6oaAtXVfqfc5E-_KEY-72" edge="1">
          <mxGeometry width="50" height="50" relative="1" as="geometry">
            <mxPoint x="340" y="766" as="sourcePoint" />
            <mxPoint x="790" y="500" as="targetPoint" />
            <Array as="points">
              <mxPoint x="620" y="810" />
            </Array>
          </mxGeometry>
        </mxCell>
        <mxCell id="gz6oaAtXVfqfc5E-_KEY-77" value="" style="endArrow=classic;html=1;rounded=0;dashed=1;exitX=1;exitY=0.5;exitDx=0;exitDy=0;" parent="1" source="gz6oaAtXVfqfc5E-_KEY-73" edge="1">
          <mxGeometry width="50" height="50" relative="1" as="geometry">
            <mxPoint x="340" y="825" as="sourcePoint" />
            <mxPoint x="790" y="503" as="targetPoint" />
            <Array as="points">
              <mxPoint x="640" y="860" />
            </Array>
          </mxGeometry>
        </mxCell>
        <mxCell id="gz6oaAtXVfqfc5E-_KEY-78" value="" style="endArrow=classic;html=1;rounded=0;dashed=1;exitX=1;exitY=0.5;exitDx=0;exitDy=0;" parent="1" source="gz6oaAtXVfqfc5E-_KEY-74" edge="1">
          <mxGeometry width="50" height="50" relative="1" as="geometry">
            <mxPoint x="340" y="885" as="sourcePoint" />
            <mxPoint x="790" y="500" as="targetPoint" />
            <Array as="points">
              <mxPoint x="650" y="870" />
            </Array>
          </mxGeometry>
        </mxCell>
        <mxCell id="gz6oaAtXVfqfc5E-_KEY-79" value="" style="endArrow=classic;html=1;rounded=0;exitX=1;exitY=0.3333333333333333;exitDx=0;exitDy=0;exitPerimeter=0;" parent="1" source="gz6oaAtXVfqfc5E-_KEY-5" edge="1" target="gz6oaAtXVfqfc5E-_KEY-71">
          <mxGeometry width="50" height="50" relative="1" as="geometry">
            <mxPoint x="-10" y="550" as="sourcePoint" />
            <mxPoint x="215" y="765" as="targetPoint" />
            <Array as="points" />
          </mxGeometry>
        </mxCell>
        <mxCell id="gz6oaAtXVfqfc5E-_KEY-81" value="" style="endArrow=classic;html=1;rounded=0;exitX=1;exitY=0.3333333333333333;exitDx=0;exitDy=0;exitPerimeter=0;entryX=0;entryY=0.5;entryDx=0;entryDy=0;" parent="1" target="gz6oaAtXVfqfc5E-_KEY-72" edge="1" source="gz6oaAtXVfqfc5E-_KEY-5">
          <mxGeometry width="50" height="50" relative="1" as="geometry">
            <mxPoint x="91" y="841" as="sourcePoint" />
            <mxPoint x="220" y="907" as="targetPoint" />
            <Array as="points" />
          </mxGeometry>
        </mxCell>
        <mxCell id="gz6oaAtXVfqfc5E-_KEY-82" value="" style="endArrow=classic;html=1;rounded=0;entryX=0;entryY=0.5;entryDx=0;entryDy=0;exitX=1;exitY=0.3333333333333333;exitDx=0;exitDy=0;exitPerimeter=0;" parent="1" target="gz6oaAtXVfqfc5E-_KEY-73" edge="1" source="gz6oaAtXVfqfc5E-_KEY-5">
          <mxGeometry width="50" height="50" relative="1" as="geometry">
            <mxPoint x="101" y="851" as="sourcePoint" />
            <mxPoint x="245" y="795" as="targetPoint" />
            <Array as="points" />
          </mxGeometry>
        </mxCell>
        <mxCell id="gz6oaAtXVfqfc5E-_KEY-83" value="" style="endArrow=classic;html=1;rounded=0;entryX=0;entryY=0.5;entryDx=0;entryDy=0;exitX=1;exitY=1;exitDx=0;exitDy=0;exitPerimeter=0;" parent="1" source="gz6oaAtXVfqfc5E-_KEY-5" target="gz6oaAtXVfqfc5E-_KEY-74" edge="1">
          <mxGeometry width="50" height="50" relative="1" as="geometry">
            <mxPoint x="111" y="861" as="sourcePoint" />
            <mxPoint x="255" y="805" as="targetPoint" />
            <Array as="points" />
          </mxGeometry>
        </mxCell>
        <mxCell id="8zHADdAv-n60VwikX2LM-2" value="Admin&lt;div&gt;&lt;br&gt;&lt;/div&gt;" style="shape=umlActor;verticalLabelPosition=bottom;verticalAlign=top;html=1;outlineConnect=0;" vertex="1" parent="1">
          <mxGeometry x="41" y="1160" width="30" height="60" as="geometry" />
        </mxCell>
        <mxCell id="8zHADdAv-n60VwikX2LM-3" value="Voir&amp;nbsp;&lt;div&gt;statistiques&lt;br&gt;generales&lt;/div&gt;" style="ellipse;whiteSpace=wrap;html=1;" vertex="1" parent="1">
          <mxGeometry x="219" y="1160" width="115" height="50" as="geometry" />
        </mxCell>
        <mxCell id="8zHADdAv-n60VwikX2LM-4" value="Suspender&lt;br&gt;compte" style="ellipse;whiteSpace=wrap;html=1;" vertex="1" parent="1">
          <mxGeometry x="215" y="1220" width="115" height="50" as="geometry" />
        </mxCell>
        <mxCell id="8zHADdAv-n60VwikX2LM-5" value="Blocker&lt;br&gt;compte&amp;nbsp; (client / restaurent)" style="ellipse;whiteSpace=wrap;html=1;" vertex="1" parent="1">
          <mxGeometry x="219" y="1280" width="115" height="50" as="geometry" />
        </mxCell>
        <mxCell id="8zHADdAv-n60VwikX2LM-6" value="Creer&lt;br&gt;restaurent profile" style="ellipse;whiteSpace=wrap;html=1;" vertex="1" parent="1">
          <mxGeometry x="200" y="700" width="115" height="50" as="geometry" />
        </mxCell>
        <mxCell id="8zHADdAv-n60VwikX2LM-7" value="" style="endArrow=classic;html=1;rounded=0;entryX=0;entryY=0.5;entryDx=0;entryDy=0;" edge="1" parent="1" target="8zHADdAv-n60VwikX2LM-6">
          <mxGeometry width="50" height="50" relative="1" as="geometry">
            <mxPoint x="70" y="820" as="sourcePoint" />
            <mxPoint x="221" y="820" as="targetPoint" />
            <Array as="points" />
          </mxGeometry>
        </mxCell>
        <mxCell id="8zHADdAv-n60VwikX2LM-8" value="" style="endArrow=classic;html=1;rounded=0;dashed=1;exitX=1;exitY=0.5;exitDx=0;exitDy=0;" edge="1" parent="1" source="8zHADdAv-n60VwikX2LM-6">
          <mxGeometry width="50" height="50" relative="1" as="geometry">
            <mxPoint x="327.5" y="750" as="sourcePoint" />
            <mxPoint x="790" y="500" as="targetPoint" />
            <Array as="points">
              <mxPoint x="605.5" y="712" />
            </Array>
          </mxGeometry>
        </mxCell>
        <mxCell id="8zHADdAv-n60VwikX2LM-9" value="" style="endArrow=classic;html=1;rounded=0;entryX=0;entryY=0.5;entryDx=0;entryDy=0;exitX=1;exitY=0.3333333333333333;exitDx=0;exitDy=0;exitPerimeter=0;" edge="1" parent="1" source="8zHADdAv-n60VwikX2LM-2" target="8zHADdAv-n60VwikX2LM-3">
          <mxGeometry width="50" height="50" relative="1" as="geometry">
            <mxPoint x="89" y="1160" as="sourcePoint" />
            <mxPoint x="219" y="1100" as="targetPoint" />
            <Array as="points" />
          </mxGeometry>
        </mxCell>
        <mxCell id="8zHADdAv-n60VwikX2LM-10" value="" style="endArrow=classic;html=1;rounded=0;entryX=0;entryY=0.5;entryDx=0;entryDy=0;" edge="1" parent="1" target="8zHADdAv-n60VwikX2LM-4">
          <mxGeometry width="50" height="50" relative="1" as="geometry">
            <mxPoint x="70" y="1180" as="sourcePoint" />
            <mxPoint x="229" y="1095" as="targetPoint" />
            <Array as="points" />
          </mxGeometry>
        </mxCell>
        <mxCell id="8zHADdAv-n60VwikX2LM-11" value="" style="endArrow=classic;html=1;rounded=0;entryX=0;entryY=0.5;entryDx=0;entryDy=0;" edge="1" parent="1" target="8zHADdAv-n60VwikX2LM-5">
          <mxGeometry width="50" height="50" relative="1" as="geometry">
            <mxPoint x="70" y="1180" as="sourcePoint" />
            <mxPoint x="229" y="1175" as="targetPoint" />
            <Array as="points" />
          </mxGeometry>
        </mxCell>
        <mxCell id="8zHADdAv-n60VwikX2LM-12" value="Modifier&lt;div&gt;Table&lt;/div&gt;" style="ellipse;whiteSpace=wrap;html=1;" vertex="1" parent="1">
          <mxGeometry x="210" y="830" width="115" height="50" as="geometry" />
        </mxCell>
        <mxCell id="8zHADdAv-n60VwikX2LM-13" value="" style="endArrow=classic;html=1;rounded=0;entryX=0;entryY=0.5;entryDx=0;entryDy=0;" edge="1" parent="1" target="8zHADdAv-n60VwikX2LM-12">
          <mxGeometry width="50" height="50" relative="1" as="geometry">
            <mxPoint x="70" y="820" as="sourcePoint" />
            <mxPoint x="235" y="965" as="targetPoint" />
            <Array as="points" />
          </mxGeometry>
        </mxCell>
        <mxCell id="8zHADdAv-n60VwikX2LM-14" value="" style="endArrow=classic;html=1;rounded=0;dashed=1;exitX=1;exitY=0.5;exitDx=0;exitDy=0;" edge="1" parent="1" source="8zHADdAv-n60VwikX2LM-12">
          <mxGeometry width="50" height="50" relative="1" as="geometry">
            <mxPoint x="350" y="965" as="sourcePoint" />
            <mxPoint x="790" y="500" as="targetPoint" />
            <Array as="points">
              <mxPoint x="630" y="820" />
            </Array>
          </mxGeometry>
        </mxCell>
        <mxCell id="8zHADdAv-n60VwikX2LM-16" value="" style="endArrow=classic;html=1;rounded=0;dashed=1;exitX=1;exitY=0.5;exitDx=0;exitDy=0;entryX=0.239;entryY=1.023;entryDx=0;entryDy=0;entryPerimeter=0;" edge="1" parent="1" source="8zHADdAv-n60VwikX2LM-3" target="gz6oaAtXVfqfc5E-_KEY-37">
          <mxGeometry width="50" height="50" relative="1" as="geometry">
            <mxPoint x="490" y="1178.5" as="sourcePoint" />
            <mxPoint x="950" y="593.5" as="targetPoint" />
            <Array as="points">
              <mxPoint x="670" y="900" />
            </Array>
          </mxGeometry>
        </mxCell>
        <mxCell id="8zHADdAv-n60VwikX2LM-17" value="" style="endArrow=classic;html=1;rounded=0;dashed=1;exitX=1;exitY=0.5;exitDx=0;exitDy=0;entryX=0.234;entryY=1.023;entryDx=0;entryDy=0;entryPerimeter=0;" edge="1" parent="1" source="8zHADdAv-n60VwikX2LM-4" target="gz6oaAtXVfqfc5E-_KEY-37">
          <mxGeometry width="50" height="50" relative="1" as="geometry">
            <mxPoint x="373" y="1195" as="sourcePoint" />
            <mxPoint x="872" y="521" as="targetPoint" />
            <Array as="points">
              <mxPoint x="709" y="910" />
            </Array>
          </mxGeometry>
        </mxCell>
        <mxCell id="8zHADdAv-n60VwikX2LM-18" value="" style="endArrow=classic;html=1;rounded=0;dashed=1;exitX=1;exitY=0;exitDx=0;exitDy=0;" edge="1" parent="1" source="8zHADdAv-n60VwikX2LM-5">
          <mxGeometry width="50" height="50" relative="1" as="geometry">
            <mxPoint x="380" y="1280" as="sourcePoint" />
            <mxPoint x="830" y="520" as="targetPoint" />
            <Array as="points">
              <mxPoint x="730" y="930" />
            </Array>
          </mxGeometry>
        </mxCell>
        <mxCell id="8zHADdAv-n60VwikX2LM-19" value="QuickTable&lt;div&gt;&lt;br&gt;&lt;/div&gt;" style="shape=umlActor;verticalLabelPosition=bottom;verticalAlign=top;html=1;outlineConnect=0;" vertex="1" parent="1">
          <mxGeometry x="1120" y="680" width="30" height="60" as="geometry" />
        </mxCell>
        <mxCell id="8zHADdAv-n60VwikX2LM-20" value="" style="endArrow=classic;html=1;rounded=0;entryX=0.752;entryY=0.171;entryDx=0;entryDy=0;entryPerimeter=0;" edge="1" parent="1" target="gz6oaAtXVfqfc5E-_KEY-72">
          <mxGeometry width="50" height="50" relative="1" as="geometry">
            <mxPoint x="1130" y="720" as="sourcePoint" />
            <mxPoint x="750" y="880" as="targetPoint" />
          </mxGeometry>
        </mxCell>
        <mxCell id="8zHADdAv-n60VwikX2LM-21" value="" style="endArrow=classic;html=1;rounded=0;entryX=1;entryY=0;entryDx=0;entryDy=0;" edge="1" parent="1" target="gz6oaAtXVfqfc5E-_KEY-73">
          <mxGeometry width="50" height="50" relative="1" as="geometry">
            <mxPoint x="1130" y="724" as="sourcePoint" />
            <mxPoint x="321" y="949" as="targetPoint" />
          </mxGeometry>
        </mxCell>
        <mxCell id="8zHADdAv-n60VwikX2LM-22" value="Voir&amp;nbsp;&lt;div&gt;mes reservations&lt;/div&gt;" style="ellipse;whiteSpace=wrap;html=1;" vertex="1" parent="1">
          <mxGeometry x="210" y="900" width="115" height="50" as="geometry" />
        </mxCell>
        <mxCell id="8zHADdAv-n60VwikX2LM-23" value="" style="endArrow=classic;html=1;rounded=0;entryX=0;entryY=0;entryDx=0;entryDy=0;" edge="1" parent="1" target="8zHADdAv-n60VwikX2LM-22">
          <mxGeometry width="50" height="50" relative="1" as="geometry">
            <mxPoint x="70" y="820" as="sourcePoint" />
            <mxPoint x="220" y="865" as="targetPoint" />
            <Array as="points" />
          </mxGeometry>
        </mxCell>
        <mxCell id="8zHADdAv-n60VwikX2LM-24" value="" style="endArrow=classic;html=1;rounded=0;dashed=1;exitX=1;exitY=0.5;exitDx=0;exitDy=0;" edge="1" parent="1" source="8zHADdAv-n60VwikX2LM-22">
          <mxGeometry width="50" height="50" relative="1" as="geometry">
            <mxPoint x="335" y="865" as="sourcePoint" />
            <mxPoint x="790" y="500" as="targetPoint" />
            <Array as="points">
              <mxPoint x="640" y="830" />
            </Array>
          </mxGeometry>
        </mxCell>
      </root>
    </mxGraphModel>
  </diagram>
</mxfile>
